<mxfile host="65bd71144e">
    <diagram id="z2dieIlX1EahIChtscXf" name="Page-1">
        <mxGraphModel dx="1783" dy="524" grid="1" gridSize="10" guides="1" tooltips="1" connect="1" arrows="1" fold="1" page="1" pageScale="1" pageWidth="850" pageHeight="1100" math="0" shadow="0">
            <root>
                <object label="" id="0">
                    <mxCell/>
                </object>
                <mxCell id="1" parent="0"/>
                <mxCell id="y7wRmsII9Z6MHcfROsYH-3" value="" style="shape=table;startSize=0;container=1;collapsible=0;childLayout=tableLayout;" parent="1" vertex="1">
                    <mxGeometry x="-40" y="70" width="150" height="103" as="geometry"/>
                </mxCell>
                <mxCell id="y7wRmsII9Z6MHcfROsYH-4" value="" style="shape=tableRow;horizontal=0;startSize=0;swimlaneHead=0;swimlaneBody=0;top=0;left=0;bottom=0;right=0;collapsible=0;dropTarget=0;fillColor=none;points=[[0,0.5],[1,0.5]];portConstraint=eastwest;" parent="y7wRmsII9Z6MHcfROsYH-3" vertex="1">
                    <mxGeometry width="150" height="30" as="geometry"/>
                </mxCell>
                <mxCell id="y7wRmsII9Z6MHcfROsYH-5" value="&lt;div style=&quot;text-align: start;&quot;&gt;&lt;span style=&quot;color: rgb(0, 0, 0); font-family: &amp;quot;Nunito Sans&amp;quot;, sans-serif; font-size: 14px; background-color: rgb(255, 255, 255);&quot;&gt;Organisateurs&lt;/span&gt;&lt;br&gt;&lt;/div&gt;" style="shape=partialRectangle;html=1;whiteSpace=wrap;connectable=0;overflow=hidden;fillColor=none;top=0;left=0;bottom=0;right=0;pointerEvents=1;" parent="y7wRmsII9Z6MHcfROsYH-4" vertex="1">
                    <mxGeometry width="150" height="30" as="geometry">
                        <mxRectangle width="150" height="30" as="alternateBounds"/>
                    </mxGeometry>
                </mxCell>
                <mxCell id="y7wRmsII9Z6MHcfROsYH-6" value="" style="shape=tableRow;horizontal=0;startSize=0;swimlaneHead=0;swimlaneBody=0;top=0;left=0;bottom=0;right=0;collapsible=0;dropTarget=0;fillColor=none;points=[[0,0.5],[1,0.5]];portConstraint=eastwest;" parent="y7wRmsII9Z6MHcfROsYH-3" vertex="1">
                    <mxGeometry y="30" width="150" height="73" as="geometry"/>
                </mxCell>
                <mxCell id="y7wRmsII9Z6MHcfROsYH-7" value="id&lt;br&gt;name&lt;br&gt;adresse&lt;br&gt;numTel" style="shape=partialRectangle;html=1;whiteSpace=wrap;connectable=0;overflow=hidden;fillColor=none;top=0;left=0;bottom=0;right=0;pointerEvents=1;align=left;" parent="y7wRmsII9Z6MHcfROsYH-6" vertex="1">
                    <mxGeometry width="150" height="73" as="geometry">
                        <mxRectangle width="150" height="73" as="alternateBounds"/>
                    </mxGeometry>
                </mxCell>
                <mxCell id="y7wRmsII9Z6MHcfROsYH-9" value="" style="shape=table;startSize=0;container=1;collapsible=0;childLayout=tableLayout;" parent="1" vertex="1">
                    <mxGeometry x="320" y="230" width="110" height="110" as="geometry"/>
                </mxCell>
                <mxCell id="y7wRmsII9Z6MHcfROsYH-10" value="" style="shape=tableRow;horizontal=0;startSize=0;swimlaneHead=0;swimlaneBody=0;top=0;left=0;bottom=0;right=0;collapsible=0;dropTarget=0;fillColor=none;points=[[0,0.5],[1,0.5]];portConstraint=eastwest;" parent="y7wRmsII9Z6MHcfROsYH-9" vertex="1">
                    <mxGeometry width="110" height="27" as="geometry"/>
                </mxCell>
                <mxCell id="y7wRmsII9Z6MHcfROsYH-11" value="&lt;div style=&quot;text-align: start;&quot;&gt;&lt;span style=&quot;color: rgb(0, 0, 0); font-family: &amp;quot;Nunito Sans&amp;quot;, sans-serif; font-size: 14px; background-color: rgb(255, 255, 255);&quot;&gt;evenements&lt;/span&gt;&lt;br&gt;&lt;/div&gt;" style="shape=partialRectangle;html=1;whiteSpace=wrap;connectable=0;overflow=hidden;fillColor=none;top=0;left=0;bottom=0;right=0;pointerEvents=1;" parent="y7wRmsII9Z6MHcfROsYH-10" vertex="1">
                    <mxGeometry width="110" height="27" as="geometry">
                        <mxRectangle width="110" height="27" as="alternateBounds"/>
                    </mxGeometry>
                </mxCell>
                <mxCell id="y7wRmsII9Z6MHcfROsYH-12" value="" style="shape=tableRow;horizontal=0;startSize=0;swimlaneHead=0;swimlaneBody=0;top=0;left=0;bottom=0;right=0;collapsible=0;dropTarget=0;fillColor=none;points=[[0,0.5],[1,0.5]];portConstraint=eastwest;" parent="y7wRmsII9Z6MHcfROsYH-9" vertex="1">
                    <mxGeometry y="27" width="110" height="83" as="geometry"/>
                </mxCell>
                <mxCell id="y7wRmsII9Z6MHcfROsYH-13" value="id&lt;br&gt;name&lt;br&gt;dateDebut&lt;br&gt;dateFin" style="shape=partialRectangle;html=1;whiteSpace=wrap;connectable=0;overflow=hidden;fillColor=none;top=0;left=0;bottom=0;right=0;pointerEvents=1;align=left;" parent="y7wRmsII9Z6MHcfROsYH-12" vertex="1">
                    <mxGeometry width="110" height="83" as="geometry">
                        <mxRectangle width="110" height="83" as="alternateBounds"/>
                    </mxGeometry>
                </mxCell>
                <mxCell id="y7wRmsII9Z6MHcfROsYH-21" value="" style="shape=table;startSize=0;container=1;collapsible=0;childLayout=tableLayout;" parent="1" vertex="1">
                    <mxGeometry x="510" y="478" width="150" height="92" as="geometry"/>
                </mxCell>
                <mxCell id="y7wRmsII9Z6MHcfROsYH-22" value="" style="shape=tableRow;horizontal=0;startSize=0;swimlaneHead=0;swimlaneBody=0;top=0;left=0;bottom=0;right=0;collapsible=0;dropTarget=0;fillColor=none;points=[[0,0.5],[1,0.5]];portConstraint=eastwest;" parent="y7wRmsII9Z6MHcfROsYH-21" vertex="1">
                    <mxGeometry width="150" height="26" as="geometry"/>
                </mxCell>
                <mxCell id="y7wRmsII9Z6MHcfROsYH-23" value="&lt;div style=&quot;text-align: start;&quot;&gt;&lt;span style=&quot;color: rgb(0, 0, 0); font-family: &amp;quot;Nunito Sans&amp;quot;, sans-serif; font-size: 14px; background-color: rgb(255, 255, 255);&quot;&gt;retours&lt;/span&gt;&lt;br&gt;&lt;/div&gt;" style="shape=partialRectangle;html=1;whiteSpace=wrap;connectable=0;overflow=hidden;fillColor=none;top=0;left=0;bottom=0;right=0;pointerEvents=1;" parent="y7wRmsII9Z6MHcfROsYH-22" vertex="1">
                    <mxGeometry width="150" height="26" as="geometry">
                        <mxRectangle width="150" height="26" as="alternateBounds"/>
                    </mxGeometry>
                </mxCell>
                <mxCell id="y7wRmsII9Z6MHcfROsYH-24" value="" style="shape=tableRow;horizontal=0;startSize=0;swimlaneHead=0;swimlaneBody=0;top=0;left=0;bottom=0;right=0;collapsible=0;dropTarget=0;fillColor=none;points=[[0,0.5],[1,0.5]];portConstraint=eastwest;" parent="y7wRmsII9Z6MHcfROsYH-21" vertex="1">
                    <mxGeometry y="26" width="150" height="66" as="geometry"/>
                </mxCell>
                <mxCell id="y7wRmsII9Z6MHcfROsYH-25" value="id&lt;br&gt;sumPrix" style="shape=partialRectangle;html=1;whiteSpace=wrap;connectable=0;overflow=hidden;fillColor=none;top=0;left=0;bottom=0;right=0;pointerEvents=1;align=left;" parent="y7wRmsII9Z6MHcfROsYH-24" vertex="1">
                    <mxGeometry width="150" height="66" as="geometry">
                        <mxRectangle width="150" height="66" as="alternateBounds"/>
                    </mxGeometry>
                </mxCell>
                <mxCell id="y7wRmsII9Z6MHcfROsYH-26" value="" style="shape=table;startSize=0;container=1;collapsible=0;childLayout=tableLayout;" parent="1" vertex="1">
                    <mxGeometry x="650" y="30" width="150" height="90" as="geometry"/>
                </mxCell>
                <mxCell id="y7wRmsII9Z6MHcfROsYH-27" value="" style="shape=tableRow;horizontal=0;startSize=0;swimlaneHead=0;swimlaneBody=0;top=0;left=0;bottom=0;right=0;collapsible=0;dropTarget=0;fillColor=none;points=[[0,0.5],[1,0.5]];portConstraint=eastwest;" parent="y7wRmsII9Z6MHcfROsYH-26" vertex="1">
                    <mxGeometry width="150" height="23" as="geometry"/>
                </mxCell>
                <mxCell id="y7wRmsII9Z6MHcfROsYH-28" value="&lt;div style=&quot;text-align: start;&quot;&gt;&lt;span style=&quot;color: rgb(0, 0, 0); font-family: &amp;quot;Nunito Sans&amp;quot;, sans-serif; font-size: 14px; background-color: rgb(255, 255, 255);&quot;&gt;participants&lt;/span&gt;&lt;br&gt;&lt;/div&gt;" style="shape=partialRectangle;html=1;whiteSpace=wrap;connectable=0;overflow=hidden;fillColor=none;top=0;left=0;bottom=0;right=0;pointerEvents=1;" parent="y7wRmsII9Z6MHcfROsYH-27" vertex="1">
                    <mxGeometry width="150" height="23" as="geometry">
                        <mxRectangle width="150" height="23" as="alternateBounds"/>
                    </mxGeometry>
                </mxCell>
                <mxCell id="y7wRmsII9Z6MHcfROsYH-29" value="" style="shape=tableRow;horizontal=0;startSize=0;swimlaneHead=0;swimlaneBody=0;top=0;left=0;bottom=0;right=0;collapsible=0;dropTarget=0;fillColor=none;points=[[0,0.5],[1,0.5]];portConstraint=eastwest;" parent="y7wRmsII9Z6MHcfROsYH-26" vertex="1">
                    <mxGeometry y="23" width="150" height="67" as="geometry"/>
                </mxCell>
                <mxCell id="y7wRmsII9Z6MHcfROsYH-30" value="id&lt;br&gt;name&lt;br&gt;cni" style="shape=partialRectangle;html=1;whiteSpace=wrap;connectable=0;overflow=hidden;fillColor=none;top=0;left=0;bottom=0;right=0;pointerEvents=1;align=left;" parent="y7wRmsII9Z6MHcfROsYH-29" vertex="1">
                    <mxGeometry width="150" height="67" as="geometry">
                        <mxRectangle width="150" height="67" as="alternateBounds"/>
                    </mxGeometry>
                </mxCell>
                <mxCell id="y7wRmsII9Z6MHcfROsYH-31" value="" style="shape=table;startSize=0;container=1;collapsible=0;childLayout=tableLayout;" parent="1" vertex="1">
                    <mxGeometry x="660" y="260" width="150" height="90" as="geometry"/>
                </mxCell>
                <mxCell id="y7wRmsII9Z6MHcfROsYH-32" value="" style="shape=tableRow;horizontal=0;startSize=0;swimlaneHead=0;swimlaneBody=0;top=0;left=0;bottom=0;right=0;collapsible=0;dropTarget=0;fillColor=none;points=[[0,0.5],[1,0.5]];portConstraint=eastwest;" parent="y7wRmsII9Z6MHcfROsYH-31" vertex="1">
                    <mxGeometry width="150" height="19" as="geometry"/>
                </mxCell>
                <mxCell id="y7wRmsII9Z6MHcfROsYH-33" value="&lt;div style=&quot;text-align: start;&quot;&gt;&lt;span style=&quot;color: rgb(0, 0, 0); font-family: &amp;quot;Nunito Sans&amp;quot;, sans-serif; font-size: 14px; background-color: rgb(255, 255, 255);&quot;&gt;billets&lt;/span&gt;&lt;br&gt;&lt;/div&gt;" style="shape=partialRectangle;html=1;whiteSpace=wrap;connectable=0;overflow=hidden;fillColor=none;top=0;left=0;bottom=0;right=0;pointerEvents=1;" parent="y7wRmsII9Z6MHcfROsYH-32" vertex="1">
                    <mxGeometry width="150" height="19" as="geometry">
                        <mxRectangle width="150" height="19" as="alternateBounds"/>
                    </mxGeometry>
                </mxCell>
                <mxCell id="y7wRmsII9Z6MHcfROsYH-34" value="" style="shape=tableRow;horizontal=0;startSize=0;swimlaneHead=0;swimlaneBody=0;top=0;left=0;bottom=0;right=0;collapsible=0;dropTarget=0;fillColor=none;points=[[0,0.5],[1,0.5]];portConstraint=eastwest;" parent="y7wRmsII9Z6MHcfROsYH-31" vertex="1">
                    <mxGeometry y="19" width="150" height="71" as="geometry"/>
                </mxCell>
                <mxCell id="y7wRmsII9Z6MHcfROsYH-35" value="id&lt;br&gt;num&lt;br&gt;prix" style="shape=partialRectangle;html=1;whiteSpace=wrap;connectable=0;overflow=hidden;fillColor=none;top=0;left=0;bottom=0;right=0;pointerEvents=1;align=left;" parent="y7wRmsII9Z6MHcfROsYH-34" vertex="1">
                    <mxGeometry width="150" height="71" as="geometry">
                        <mxRectangle width="150" height="71" as="alternateBounds"/>
                    </mxGeometry>
                </mxCell>
                <mxCell id="y7wRmsII9Z6MHcfROsYH-36" value="" style="shape=table;startSize=0;container=1;collapsible=0;childLayout=tableLayout;" parent="1" vertex="1">
                    <mxGeometry x="30" y="450" width="150" height="110" as="geometry"/>
                </mxCell>
                <mxCell id="y7wRmsII9Z6MHcfROsYH-37" value="" style="shape=tableRow;horizontal=0;startSize=0;swimlaneHead=0;swimlaneBody=0;top=0;left=0;bottom=0;right=0;collapsible=0;dropTarget=0;fillColor=none;points=[[0,0.5],[1,0.5]];portConstraint=eastwest;" parent="y7wRmsII9Z6MHcfROsYH-36" vertex="1">
                    <mxGeometry width="150" height="28" as="geometry"/>
                </mxCell>
                <mxCell id="y7wRmsII9Z6MHcfROsYH-38" value="&lt;div style=&quot;text-align: start;&quot;&gt;&lt;span style=&quot;color: rgb(0, 0, 0); font-family: &amp;quot;Nunito Sans&amp;quot;, sans-serif; font-size: 14px; background-color: rgb(255, 255, 255);&quot;&gt;lieux&lt;/span&gt;&lt;br&gt;&lt;/div&gt;" style="shape=partialRectangle;html=1;whiteSpace=wrap;connectable=0;overflow=hidden;fillColor=none;top=0;left=0;bottom=0;right=0;pointerEvents=1;" parent="y7wRmsII9Z6MHcfROsYH-37" vertex="1">
                    <mxGeometry width="150" height="28" as="geometry">
                        <mxRectangle width="150" height="28" as="alternateBounds"/>
                    </mxGeometry>
                </mxCell>
                <mxCell id="y7wRmsII9Z6MHcfROsYH-39" value="" style="shape=tableRow;horizontal=0;startSize=0;swimlaneHead=0;swimlaneBody=0;top=0;left=0;bottom=0;right=0;collapsible=0;dropTarget=0;fillColor=none;points=[[0,0.5],[1,0.5]];portConstraint=eastwest;" parent="y7wRmsII9Z6MHcfROsYH-36" vertex="1">
                    <mxGeometry y="28" width="150" height="82" as="geometry"/>
                </mxCell>
                <mxCell id="y7wRmsII9Z6MHcfROsYH-40" value="id&lt;br&gt;pays&lt;br&gt;ville&lt;br&gt;adresse" style="shape=partialRectangle;html=1;whiteSpace=wrap;connectable=0;overflow=hidden;fillColor=none;top=0;left=0;bottom=0;right=0;pointerEvents=1;align=left;" parent="y7wRmsII9Z6MHcfROsYH-39" vertex="1">
                    <mxGeometry width="150" height="82" as="geometry">
                        <mxRectangle width="150" height="82" as="alternateBounds"/>
                    </mxGeometry>
                </mxCell>
                <mxCell id="y7wRmsII9Z6MHcfROsYH-41" value="" style="shape=table;startSize=0;container=1;collapsible=0;childLayout=tableLayout;" parent="1" vertex="1">
                    <mxGeometry x="365" y="23" width="95.00000000000023" height="102" as="geometry"/>
                </mxCell>
                <mxCell id="y7wRmsII9Z6MHcfROsYH-42" value="" style="shape=tableRow;horizontal=0;startSize=0;swimlaneHead=0;swimlaneBody=0;top=0;left=0;bottom=0;right=0;collapsible=0;dropTarget=0;fillColor=none;points=[[0,0.5],[1,0.5]];portConstraint=eastwest;" parent="y7wRmsII9Z6MHcfROsYH-41" vertex="1">
                    <mxGeometry width="95.00000000000023" height="27" as="geometry"/>
                </mxCell>
                <mxCell id="y7wRmsII9Z6MHcfROsYH-43" value="&lt;div style=&quot;text-align: start;&quot;&gt;&lt;span style=&quot;color: rgb(0, 0, 0); font-family: &amp;quot;Nunito Sans&amp;quot;, sans-serif; font-size: 14px; background-color: rgb(255, 255, 255);&quot;&gt;sponsors&lt;/span&gt;&lt;br&gt;&lt;/div&gt;" style="shape=partialRectangle;html=1;whiteSpace=wrap;connectable=0;overflow=hidden;fillColor=none;top=0;left=0;bottom=0;right=0;pointerEvents=1;" parent="y7wRmsII9Z6MHcfROsYH-42" vertex="1">
                    <mxGeometry width="95" height="27" as="geometry">
                        <mxRectangle width="95" height="27" as="alternateBounds"/>
                    </mxGeometry>
                </mxCell>
                <mxCell id="y7wRmsII9Z6MHcfROsYH-44" value="" style="shape=tableRow;horizontal=0;startSize=0;swimlaneHead=0;swimlaneBody=0;top=0;left=0;bottom=0;right=0;collapsible=0;dropTarget=0;fillColor=none;points=[[0,0.5],[1,0.5]];portConstraint=eastwest;" parent="y7wRmsII9Z6MHcfROsYH-41" vertex="1">
                    <mxGeometry y="27" width="95.00000000000023" height="75" as="geometry"/>
                </mxCell>
                <mxCell id="y7wRmsII9Z6MHcfROsYH-45" value="id&lt;br&gt;name&lt;br&gt;siteWeb&lt;br&gt;pays" style="shape=partialRectangle;html=1;whiteSpace=wrap;connectable=0;overflow=hidden;fillColor=none;top=0;left=0;bottom=0;right=0;pointerEvents=1;align=left;" parent="y7wRmsII9Z6MHcfROsYH-44" vertex="1">
                    <mxGeometry width="95" height="75" as="geometry">
                        <mxRectangle width="95" height="75" as="alternateBounds"/>
                    </mxGeometry>
                </mxCell>
                <mxCell id="y7wRmsII9Z6MHcfROsYH-46" value="" style="endArrow=none;html=1;exitX=1;exitY=0.5;exitDx=0;exitDy=0;entryX=0.418;entryY=0.993;entryDx=0;entryDy=0;entryPerimeter=0;startArrow=none;" parent="1" source="y7wRmsII9Z6MHcfROsYH-50" target="y7wRmsII9Z6MHcfROsYH-12" edge="1">
                    <mxGeometry width="50" height="50" relative="1" as="geometry">
                        <mxPoint x="280" y="220" as="sourcePoint"/>
                        <mxPoint x="280" y="170" as="targetPoint"/>
                    </mxGeometry>
                </mxCell>
                <mxCell id="y7wRmsII9Z6MHcfROsYH-51" value="" style="endArrow=none;html=1;exitX=0.418;exitY=-0.022;exitDx=0;exitDy=0;exitPerimeter=0;entryX=0;entryY=1;entryDx=0;entryDy=0;" parent="1" source="y7wRmsII9Z6MHcfROsYH-37" target="y7wRmsII9Z6MHcfROsYH-50" edge="1">
                    <mxGeometry width="50" height="50" relative="1" as="geometry">
                        <mxPoint x="281.70000000000005" y="235.34000000000003" as="sourcePoint"/>
                        <mxPoint x="282.70000000000005" y="169.34900000000005" as="targetPoint"/>
                    </mxGeometry>
                </mxCell>
                <mxCell id="y7wRmsII9Z6MHcfROsYH-50" value="lieux" style="ellipse;whiteSpace=wrap;html=1;" parent="1" vertex="1">
                    <mxGeometry x="200" y="370" width="75" height="50" as="geometry"/>
                </mxCell>
                <mxCell id="y7wRmsII9Z6MHcfROsYH-64" value="" style="endArrow=none;html=1;exitX=0.05;exitY=0.258;exitDx=0;exitDy=0;entryX=1.007;entryY=0.973;entryDx=0;entryDy=0;entryPerimeter=0;startArrow=none;exitPerimeter=0;" parent="1" source="y7wRmsII9Z6MHcfROsYH-65" target="y7wRmsII9Z6MHcfROsYH-6" edge="1">
                    <mxGeometry width="50" height="50" relative="1" as="geometry">
                        <mxPoint x="380" y="200" as="sourcePoint"/>
                        <mxPoint x="400" y="180" as="targetPoint"/>
                        <Array as="points"/>
                    </mxGeometry>
                </mxCell>
                <mxCell id="y7wRmsII9Z6MHcfROsYH-68" value="" style="endArrow=none;html=1;exitX=-0.013;exitY=-0.089;exitDx=0;exitDy=0;exitPerimeter=0;entryX=0.942;entryY=0.858;entryDx=0;entryDy=0;entryPerimeter=0;" parent="1" source="y7wRmsII9Z6MHcfROsYH-10" target="y7wRmsII9Z6MHcfROsYH-65" edge="1">
                    <mxGeometry width="50" height="50" relative="1" as="geometry">
                        <mxPoint x="318.04999999999995" y="227.33000000000004" as="sourcePoint"/>
                        <mxPoint x="178.04999999999995" y="148.029" as="targetPoint"/>
                        <Array as="points"/>
                    </mxGeometry>
                </mxCell>
                <mxCell id="y7wRmsII9Z6MHcfROsYH-65" value="organitation" style="ellipse;whiteSpace=wrap;html=1;" parent="1" vertex="1">
                    <mxGeometry x="180" y="190" width="80" height="40" as="geometry"/>
                </mxCell>
                <mxCell id="y7wRmsII9Z6MHcfROsYH-70" value="" style="endArrow=none;html=1;entryX=-0.004;entryY=0.63;entryDx=0;entryDy=0;entryPerimeter=0;exitX=1;exitY=0.5;exitDx=0;exitDy=0;startArrow=none;" parent="1" source="y7wRmsII9Z6MHcfROsYH-73" target="y7wRmsII9Z6MHcfROsYH-34" edge="1">
                    <mxGeometry width="50" height="50" relative="1" as="geometry">
                        <mxPoint x="450" y="310" as="sourcePoint"/>
                        <mxPoint x="500" y="260" as="targetPoint"/>
                    </mxGeometry>
                </mxCell>
                <mxCell id="y7wRmsII9Z6MHcfROsYH-74" value="" style="endArrow=none;html=1;entryX=-0.004;entryY=0.63;entryDx=0;entryDy=0;entryPerimeter=0;exitX=1;exitY=0.5;exitDx=0;exitDy=0;" parent="1" source="y7wRmsII9Z6MHcfROsYH-12" target="y7wRmsII9Z6MHcfROsYH-73" edge="1">
                    <mxGeometry width="50" height="50" relative="1" as="geometry">
                        <mxPoint x="470" y="306.5" as="sourcePoint"/>
                        <mxPoint x="599.4000000000001" y="356.70000000000005" as="targetPoint"/>
                    </mxGeometry>
                </mxCell>
                <mxCell id="y7wRmsII9Z6MHcfROsYH-73" value="invitation" style="ellipse;whiteSpace=wrap;html=1;" parent="1" vertex="1">
                    <mxGeometry x="540" y="286.5" width="70" height="40" as="geometry"/>
                </mxCell>
                <mxCell id="y7wRmsII9Z6MHcfROsYH-76" value="" style="endArrow=none;html=1;entryX=0.507;entryY=1.015;entryDx=0;entryDy=0;entryPerimeter=0;exitX=0.5;exitY=0;exitDx=0;exitDy=0;startArrow=none;" parent="1" source="y7wRmsII9Z6MHcfROsYH-77" target="y7wRmsII9Z6MHcfROsYH-29" edge="1">
                    <mxGeometry width="50" height="50" relative="1" as="geometry">
                        <mxPoint x="510" y="220" as="sourcePoint"/>
                        <mxPoint x="560" y="170" as="targetPoint"/>
                    </mxGeometry>
                </mxCell>
                <mxCell id="y7wRmsII9Z6MHcfROsYH-78" value="" style="endArrow=none;html=1;entryX=0.507;entryY=1.015;entryDx=0;entryDy=0;entryPerimeter=0;exitX=0.436;exitY=0.028;exitDx=0;exitDy=0;exitPerimeter=0;" parent="1" source="y7wRmsII9Z6MHcfROsYH-32" target="y7wRmsII9Z6MHcfROsYH-77" edge="1">
                    <mxGeometry width="50" height="50" relative="1" as="geometry">
                        <mxPoint x="726" y="255.34400000000005" as="sourcePoint"/>
                        <mxPoint x="726.05" y="151.35000000000002" as="targetPoint"/>
                    </mxGeometry>
                </mxCell>
                <mxCell id="y7wRmsII9Z6MHcfROsYH-77" value="acheter" style="ellipse;whiteSpace=wrap;html=1;" parent="1" vertex="1">
                    <mxGeometry x="690" y="173" width="70" height="40" as="geometry"/>
                </mxCell>
                <mxCell id="y7wRmsII9Z6MHcfROsYH-79" value="" style="endArrow=none;html=1;entryX=0.382;entryY=1.035;entryDx=0;entryDy=0;entryPerimeter=0;exitX=0.471;exitY=-0.022;exitDx=0;exitDy=0;exitPerimeter=0;" parent="1" source="y7wRmsII9Z6MHcfROsYH-10" target="y7wRmsII9Z6MHcfROsYH-44" edge="1">
                    <mxGeometry width="50" height="50" relative="1" as="geometry">
                        <mxPoint x="340" y="220" as="sourcePoint"/>
                        <mxPoint x="390" y="170" as="targetPoint"/>
                    </mxGeometry>
                </mxCell>
                <mxCell id="y7wRmsII9Z6MHcfROsYH-80" value="financement" style="ellipse;whiteSpace=wrap;html=1;" parent="1" vertex="1">
                    <mxGeometry x="370" y="167" width="80" height="40" as="geometry"/>
                </mxCell>
                <mxCell id="y7wRmsII9Z6MHcfROsYH-82" value="1,n" style="text;html=1;align=center;verticalAlign=middle;resizable=0;points=[];autosize=1;strokeColor=none;fillColor=none;" parent="1" vertex="1">
                    <mxGeometry x="120" y="150" width="40" height="30" as="geometry"/>
                </mxCell>
                <mxCell id="y7wRmsII9Z6MHcfROsYH-83" value="1,n" style="text;html=1;align=center;verticalAlign=middle;resizable=0;points=[];autosize=1;strokeColor=none;fillColor=none;" parent="1" vertex="1">
                    <mxGeometry x="270" y="200" width="40" height="30" as="geometry"/>
                </mxCell>
                <mxCell id="y7wRmsII9Z6MHcfROsYH-85" value="1,1" style="text;html=1;align=center;verticalAlign=middle;resizable=0;points=[];autosize=1;strokeColor=none;fillColor=none;" parent="1" vertex="1">
                    <mxGeometry x="390" y="205" width="40" height="30" as="geometry"/>
                </mxCell>
                <mxCell id="y7wRmsII9Z6MHcfROsYH-86" value="1,n" style="text;html=1;align=center;verticalAlign=middle;resizable=0;points=[];autosize=1;strokeColor=none;fillColor=none;" parent="1" vertex="1">
                    <mxGeometry x="410" y="145" width="40" height="30" as="geometry"/>
                </mxCell>
                <mxCell id="y7wRmsII9Z6MHcfROsYH-88" value="1,n" style="text;html=1;align=center;verticalAlign=middle;resizable=0;points=[];autosize=1;strokeColor=none;fillColor=none;" parent="1" vertex="1">
                    <mxGeometry x="720" y="230" width="40" height="30" as="geometry"/>
                </mxCell>
                <mxCell id="y7wRmsII9Z6MHcfROsYH-89" value="1,1" style="text;html=1;align=center;verticalAlign=middle;resizable=0;points=[];autosize=1;strokeColor=none;fillColor=none;" parent="1" vertex="1">
                    <mxGeometry x="720" y="120" width="40" height="30" as="geometry"/>
                </mxCell>
                <mxCell id="y7wRmsII9Z6MHcfROsYH-90" value="1,n" style="text;html=1;align=center;verticalAlign=middle;resizable=0;points=[];autosize=1;strokeColor=none;fillColor=none;" parent="1" vertex="1">
                    <mxGeometry x="480" y="276.5" width="40" height="30" as="geometry"/>
                </mxCell>
                <mxCell id="y7wRmsII9Z6MHcfROsYH-91" value="1,1" style="text;html=1;align=center;verticalAlign=middle;resizable=0;points=[];autosize=1;strokeColor=none;fillColor=none;" parent="1" vertex="1">
                    <mxGeometry x="620" y="296.5" width="40" height="30" as="geometry"/>
                </mxCell>
                <mxCell id="y7wRmsII9Z6MHcfROsYH-96" value="" style="endArrow=none;html=1;entryX=0.74;entryY=0.993;entryDx=0;entryDy=0;entryPerimeter=0;exitX=0.137;exitY=0.02;exitDx=0;exitDy=0;exitPerimeter=0;" parent="1" source="y7wRmsII9Z6MHcfROsYH-22" target="y7wRmsII9Z6MHcfROsYH-12" edge="1">
                    <mxGeometry width="50" height="50" relative="1" as="geometry">
                        <mxPoint x="470" y="420" as="sourcePoint"/>
                        <mxPoint x="520" y="370" as="targetPoint"/>
                    </mxGeometry>
                </mxCell>
                <mxCell id="y7wRmsII9Z6MHcfROsYH-97" value="" style="endArrow=none;html=1;entryX=0.209;entryY=1.04;entryDx=0;entryDy=0;entryPerimeter=0;startArrow=none;" parent="1" source="y7wRmsII9Z6MHcfROsYH-99" target="y7wRmsII9Z6MHcfROsYH-34" edge="1">
                    <mxGeometry width="50" height="50" relative="1" as="geometry">
                        <mxPoint x="470" y="360" as="sourcePoint"/>
                        <mxPoint x="520" y="310" as="targetPoint"/>
                    </mxGeometry>
                </mxCell>
                <mxCell id="y7wRmsII9Z6MHcfROsYH-98" value="even" style="ellipse;whiteSpace=wrap;html=1;" parent="1" vertex="1">
                    <mxGeometry x="445" y="390" width="70" height="40" as="geometry"/>
                </mxCell>
                <mxCell id="y7wRmsII9Z6MHcfROsYH-100" value="" style="endArrow=none;html=1;" parent="1" source="y7wRmsII9Z6MHcfROsYH-22" edge="1">
                    <mxGeometry width="50" height="50" relative="1" as="geometry">
                        <mxPoint x="599.6185567010311" y="478" as="sourcePoint"/>
                        <mxPoint x="630" y="450" as="targetPoint"/>
                    </mxGeometry>
                </mxCell>
                <mxCell id="y7wRmsII9Z6MHcfROsYH-99" value="binificier" style="ellipse;whiteSpace=wrap;html=1;" parent="1" vertex="1">
                    <mxGeometry x="610" y="410" width="70" height="40" as="geometry"/>
                </mxCell>
                <mxCell id="y7wRmsII9Z6MHcfROsYH-101" value="1,1" style="text;html=1;align=center;verticalAlign=middle;resizable=0;points=[];autosize=1;strokeColor=none;fillColor=none;" parent="1" vertex="1">
                    <mxGeometry x="680" y="380" width="40" height="30" as="geometry"/>
                </mxCell>
                <mxCell id="y7wRmsII9Z6MHcfROsYH-102" value="1,n" style="text;html=1;align=center;verticalAlign=middle;resizable=0;points=[];autosize=1;strokeColor=none;fillColor=none;" parent="1" vertex="1">
                    <mxGeometry x="620" y="450" width="40" height="30" as="geometry"/>
                </mxCell>
                <mxCell id="y7wRmsII9Z6MHcfROsYH-103" value="1,1" style="text;html=1;align=center;verticalAlign=middle;resizable=0;points=[];autosize=1;strokeColor=none;fillColor=none;" parent="1" vertex="1">
                    <mxGeometry x="515" y="440" width="40" height="30" as="geometry"/>
                </mxCell>
                <mxCell id="y7wRmsII9Z6MHcfROsYH-104" value="1,1" style="text;html=1;align=center;verticalAlign=middle;resizable=0;points=[];autosize=1;strokeColor=none;fillColor=none;" parent="1" vertex="1">
                    <mxGeometry x="450" y="360" width="40" height="30" as="geometry"/>
                </mxCell>
                <mxCell id="y7wRmsII9Z6MHcfROsYH-105" value="1,1" style="text;html=1;align=center;verticalAlign=middle;resizable=0;points=[];autosize=1;strokeColor=none;fillColor=none;" parent="1" vertex="1">
                    <mxGeometry x="280" y="350" width="40" height="30" as="geometry"/>
                </mxCell>
                <mxCell id="y7wRmsII9Z6MHcfROsYH-106" value="1,1" style="text;html=1;align=center;verticalAlign=middle;resizable=0;points=[];autosize=1;strokeColor=none;fillColor=none;" parent="1" vertex="1">
                    <mxGeometry x="85" y="410" width="40" height="30" as="geometry"/>
                </mxCell>
                <mxCell id="y7wRmsII9Z6MHcfROsYH-202" style="edgeStyle=none;html=1;fontFamily=Helvetica;fontSize=15;" parent="1" source="y7wRmsII9Z6MHcfROsYH-107" edge="1">
                    <mxGeometry relative="1" as="geometry">
                        <mxPoint x="120" y="1020" as="targetPoint"/>
                    </mxGeometry>
                </mxCell>
                <mxCell id="y7wRmsII9Z6MHcfROsYH-107" value="" style="shape=table;startSize=0;container=1;collapsible=0;childLayout=tableLayout;" parent="1" vertex="1">
                    <mxGeometry x="-30" y="796" width="130" height="103" as="geometry"/>
                </mxCell>
                <mxCell id="y7wRmsII9Z6MHcfROsYH-108" value="" style="shape=tableRow;horizontal=0;startSize=0;swimlaneHead=0;swimlaneBody=0;top=0;left=0;bottom=0;right=0;collapsible=0;dropTarget=0;fillColor=none;points=[[0,0.5],[1,0.5]];portConstraint=eastwest;" parent="y7wRmsII9Z6MHcfROsYH-107" vertex="1">
                    <mxGeometry width="130" height="30" as="geometry"/>
                </mxCell>
                <mxCell id="y7wRmsII9Z6MHcfROsYH-109" value="&lt;div style=&quot;text-align: start;&quot;&gt;&lt;span style=&quot;color: rgb(0, 0, 0); font-family: &amp;quot;Nunito Sans&amp;quot;, sans-serif; font-size: 14px; background-color: rgb(255, 255, 255);&quot;&gt;Organisateurs&lt;/span&gt;&lt;br&gt;&lt;/div&gt;" style="shape=partialRectangle;html=1;whiteSpace=wrap;connectable=0;overflow=hidden;fillColor=none;top=0;left=0;bottom=0;right=0;pointerEvents=1;" parent="y7wRmsII9Z6MHcfROsYH-108" vertex="1">
                    <mxGeometry width="130" height="30" as="geometry">
                        <mxRectangle width="130" height="30" as="alternateBounds"/>
                    </mxGeometry>
                </mxCell>
                <mxCell id="y7wRmsII9Z6MHcfROsYH-110" value="" style="shape=tableRow;horizontal=0;startSize=0;swimlaneHead=0;swimlaneBody=0;top=0;left=0;bottom=0;right=0;collapsible=0;dropTarget=0;fillColor=none;points=[[0,0.5],[1,0.5]];portConstraint=eastwest;" parent="y7wRmsII9Z6MHcfROsYH-107" vertex="1">
                    <mxGeometry y="30" width="130" height="73" as="geometry"/>
                </mxCell>
                <mxCell id="y7wRmsII9Z6MHcfROsYH-111" value="id&lt;br&gt;name&lt;br&gt;adresse&lt;br&gt;numTel" style="shape=partialRectangle;html=1;whiteSpace=wrap;connectable=0;overflow=hidden;fillColor=none;top=0;left=0;bottom=0;right=0;pointerEvents=1;align=left;" parent="y7wRmsII9Z6MHcfROsYH-110" vertex="1">
                    <mxGeometry width="130" height="73" as="geometry">
                        <mxRectangle width="130" height="73" as="alternateBounds"/>
                    </mxGeometry>
                </mxCell>
                <mxCell id="y7wRmsII9Z6MHcfROsYH-203" style="edgeStyle=none;html=1;fontFamily=Helvetica;fontSize=15;" parent="1" source="y7wRmsII9Z6MHcfROsYH-112" edge="1">
                    <mxGeometry relative="1" as="geometry">
                        <mxPoint x="190" y="1060" as="targetPoint"/>
                    </mxGeometry>
                </mxCell>
                <mxCell id="y7wRmsII9Z6MHcfROsYH-204" style="edgeStyle=none;html=1;entryX=1;entryY=0.5;entryDx=0;entryDy=0;fontFamily=Helvetica;fontSize=15;" parent="1" source="y7wRmsII9Z6MHcfROsYH-112" target="y7wRmsII9Z6MHcfROsYH-110" edge="1">
                    <mxGeometry relative="1" as="geometry"/>
                </mxCell>
                <mxCell id="y7wRmsII9Z6MHcfROsYH-205" style="edgeStyle=none;html=1;entryX=1;entryY=0.5;entryDx=0;entryDy=0;fontFamily=Helvetica;fontSize=15;" parent="1" source="y7wRmsII9Z6MHcfROsYH-112" target="y7wRmsII9Z6MHcfROsYH-135" edge="1">
                    <mxGeometry relative="1" as="geometry"/>
                </mxCell>
                <mxCell id="y7wRmsII9Z6MHcfROsYH-206" style="edgeStyle=none;html=1;entryX=0;entryY=0.5;entryDx=0;entryDy=0;fontFamily=Helvetica;fontSize=15;" parent="1" source="y7wRmsII9Z6MHcfROsYH-112" target="y7wRmsII9Z6MHcfROsYH-120" edge="1">
                    <mxGeometry relative="1" as="geometry"/>
                </mxCell>
                <mxCell id="y7wRmsII9Z6MHcfROsYH-210" style="edgeStyle=none;html=1;fontFamily=Helvetica;fontSize=15;" parent="1" source="y7wRmsII9Z6MHcfROsYH-112" edge="1">
                    <mxGeometry relative="1" as="geometry">
                        <mxPoint x="405" y="870" as="targetPoint"/>
                    </mxGeometry>
                </mxCell>
                <mxCell id="y7wRmsII9Z6MHcfROsYH-112" value="" style="shape=table;startSize=0;container=1;collapsible=0;childLayout=tableLayout;" parent="1" vertex="1">
                    <mxGeometry x="330" y="956" width="150" height="110" as="geometry"/>
                </mxCell>
                <mxCell id="y7wRmsII9Z6MHcfROsYH-113" value="" style="shape=tableRow;horizontal=0;startSize=0;swimlaneHead=0;swimlaneBody=0;top=0;left=0;bottom=0;right=0;collapsible=0;dropTarget=0;fillColor=none;points=[[0,0.5],[1,0.5]];portConstraint=eastwest;" parent="y7wRmsII9Z6MHcfROsYH-112" vertex="1">
                    <mxGeometry width="150" height="27" as="geometry"/>
                </mxCell>
                <mxCell id="y7wRmsII9Z6MHcfROsYH-114" value="&lt;div style=&quot;text-align: start;&quot;&gt;&lt;span style=&quot;color: rgb(0, 0, 0); font-family: &amp;quot;Nunito Sans&amp;quot;, sans-serif; font-size: 14px; background-color: rgb(255, 255, 255);&quot;&gt;evenements&lt;/span&gt;&lt;br&gt;&lt;/div&gt;" style="shape=partialRectangle;html=1;whiteSpace=wrap;connectable=0;overflow=hidden;fillColor=none;top=0;left=0;bottom=0;right=0;pointerEvents=1;" parent="y7wRmsII9Z6MHcfROsYH-113" vertex="1">
                    <mxGeometry width="150" height="27" as="geometry">
                        <mxRectangle width="150" height="27" as="alternateBounds"/>
                    </mxGeometry>
                </mxCell>
                <mxCell id="y7wRmsII9Z6MHcfROsYH-115" value="" style="shape=tableRow;horizontal=0;startSize=0;swimlaneHead=0;swimlaneBody=0;top=0;left=0;bottom=0;right=0;collapsible=0;dropTarget=0;fillColor=none;points=[[0,0.5],[1,0.5]];portConstraint=eastwest;" parent="y7wRmsII9Z6MHcfROsYH-112" vertex="1">
                    <mxGeometry y="27" width="150" height="83" as="geometry"/>
                </mxCell>
                <mxCell id="y7wRmsII9Z6MHcfROsYH-116" value="id&lt;br&gt;name&lt;br&gt;dateDebut&lt;br&gt;dateFin&lt;br&gt;id_spons" style="shape=partialRectangle;html=1;whiteSpace=wrap;connectable=0;overflow=hidden;fillColor=none;top=0;left=0;bottom=0;right=0;pointerEvents=1;align=left;" parent="y7wRmsII9Z6MHcfROsYH-115" vertex="1">
                    <mxGeometry width="150" height="83" as="geometry">
                        <mxRectangle width="150" height="83" as="alternateBounds"/>
                    </mxGeometry>
                </mxCell>
                <mxCell id="y7wRmsII9Z6MHcfROsYH-117" value="" style="shape=table;startSize=0;container=1;collapsible=0;childLayout=tableLayout;" parent="1" vertex="1">
                    <mxGeometry x="520" y="1204" width="150" height="92" as="geometry"/>
                </mxCell>
                <mxCell id="y7wRmsII9Z6MHcfROsYH-118" value="" style="shape=tableRow;horizontal=0;startSize=0;swimlaneHead=0;swimlaneBody=0;top=0;left=0;bottom=0;right=0;collapsible=0;dropTarget=0;fillColor=none;points=[[0,0.5],[1,0.5]];portConstraint=eastwest;" parent="y7wRmsII9Z6MHcfROsYH-117" vertex="1">
                    <mxGeometry width="150" height="26" as="geometry"/>
                </mxCell>
                <mxCell id="y7wRmsII9Z6MHcfROsYH-119" value="&lt;div style=&quot;text-align: start;&quot;&gt;&lt;span style=&quot;color: rgb(0, 0, 0); font-family: &amp;quot;Nunito Sans&amp;quot;, sans-serif; font-size: 14px; background-color: rgb(255, 255, 255);&quot;&gt;retours&lt;/span&gt;&lt;br&gt;&lt;/div&gt;" style="shape=partialRectangle;html=1;whiteSpace=wrap;connectable=0;overflow=hidden;fillColor=none;top=0;left=0;bottom=0;right=0;pointerEvents=1;" parent="y7wRmsII9Z6MHcfROsYH-118" vertex="1">
                    <mxGeometry width="150" height="26" as="geometry">
                        <mxRectangle width="150" height="26" as="alternateBounds"/>
                    </mxGeometry>
                </mxCell>
                <mxCell id="y7wRmsII9Z6MHcfROsYH-120" value="" style="shape=tableRow;horizontal=0;startSize=0;swimlaneHead=0;swimlaneBody=0;top=0;left=0;bottom=0;right=0;collapsible=0;dropTarget=0;fillColor=none;points=[[0,0.5],[1,0.5]];portConstraint=eastwest;" parent="y7wRmsII9Z6MHcfROsYH-117" vertex="1">
                    <mxGeometry y="26" width="150" height="66" as="geometry"/>
                </mxCell>
                <mxCell id="y7wRmsII9Z6MHcfROsYH-121" value="id&lt;br&gt;sumPrix&lt;br&gt;id_eve" style="shape=partialRectangle;html=1;whiteSpace=wrap;connectable=0;overflow=hidden;fillColor=none;top=0;left=0;bottom=0;right=0;pointerEvents=1;align=left;" parent="y7wRmsII9Z6MHcfROsYH-120" vertex="1">
                    <mxGeometry width="150" height="66" as="geometry">
                        <mxRectangle width="150" height="66" as="alternateBounds"/>
                    </mxGeometry>
                </mxCell>
                <mxCell id="y7wRmsII9Z6MHcfROsYH-209" style="edgeStyle=none;html=1;fontFamily=Helvetica;fontSize=15;" parent="1" source="y7wRmsII9Z6MHcfROsYH-122" target="y7wRmsII9Z6MHcfROsYH-128" edge="1">
                    <mxGeometry relative="1" as="geometry"/>
                </mxCell>
                <mxCell id="y7wRmsII9Z6MHcfROsYH-122" value="" style="shape=table;startSize=0;container=1;collapsible=0;childLayout=tableLayout;" parent="1" vertex="1">
                    <mxGeometry x="660" y="756" width="150" height="90" as="geometry"/>
                </mxCell>
                <mxCell id="y7wRmsII9Z6MHcfROsYH-123" value="" style="shape=tableRow;horizontal=0;startSize=0;swimlaneHead=0;swimlaneBody=0;top=0;left=0;bottom=0;right=0;collapsible=0;dropTarget=0;fillColor=none;points=[[0,0.5],[1,0.5]];portConstraint=eastwest;" parent="y7wRmsII9Z6MHcfROsYH-122" vertex="1">
                    <mxGeometry width="150" height="23" as="geometry"/>
                </mxCell>
                <mxCell id="y7wRmsII9Z6MHcfROsYH-124" value="&lt;div style=&quot;text-align: start;&quot;&gt;&lt;span style=&quot;color: rgb(0, 0, 0); font-family: &amp;quot;Nunito Sans&amp;quot;, sans-serif; font-size: 14px; background-color: rgb(255, 255, 255);&quot;&gt;participants&lt;/span&gt;&lt;br&gt;&lt;/div&gt;" style="shape=partialRectangle;html=1;whiteSpace=wrap;connectable=0;overflow=hidden;fillColor=none;top=0;left=0;bottom=0;right=0;pointerEvents=1;" parent="y7wRmsII9Z6MHcfROsYH-123" vertex="1">
                    <mxGeometry width="150" height="23" as="geometry">
                        <mxRectangle width="150" height="23" as="alternateBounds"/>
                    </mxGeometry>
                </mxCell>
                <mxCell id="y7wRmsII9Z6MHcfROsYH-125" value="" style="shape=tableRow;horizontal=0;startSize=0;swimlaneHead=0;swimlaneBody=0;top=0;left=0;bottom=0;right=0;collapsible=0;dropTarget=0;fillColor=none;points=[[0,0.5],[1,0.5]];portConstraint=eastwest;" parent="y7wRmsII9Z6MHcfROsYH-122" vertex="1">
                    <mxGeometry y="23" width="150" height="67" as="geometry"/>
                </mxCell>
                <mxCell id="y7wRmsII9Z6MHcfROsYH-126" value="id&lt;br&gt;name&lt;br&gt;cni&lt;br&gt;id_billet" style="shape=partialRectangle;html=1;whiteSpace=wrap;connectable=0;overflow=hidden;fillColor=none;top=0;left=0;bottom=0;right=0;pointerEvents=1;align=left;" parent="y7wRmsII9Z6MHcfROsYH-125" vertex="1">
                    <mxGeometry width="150" height="67" as="geometry">
                        <mxRectangle width="150" height="67" as="alternateBounds"/>
                    </mxGeometry>
                </mxCell>
                <mxCell id="y7wRmsII9Z6MHcfROsYH-207" style="edgeStyle=none;html=1;fontFamily=Helvetica;fontSize=15;" parent="1" source="y7wRmsII9Z6MHcfROsYH-127" target="y7wRmsII9Z6MHcfROsYH-118" edge="1">
                    <mxGeometry relative="1" as="geometry"/>
                </mxCell>
                <mxCell id="y7wRmsII9Z6MHcfROsYH-127" value="" style="shape=table;startSize=0;container=1;collapsible=0;childLayout=tableLayout;" parent="1" vertex="1">
                    <mxGeometry x="670" y="996" width="150" height="100" as="geometry"/>
                </mxCell>
                <mxCell id="y7wRmsII9Z6MHcfROsYH-128" value="" style="shape=tableRow;horizontal=0;startSize=0;swimlaneHead=0;swimlaneBody=0;top=0;left=0;bottom=0;right=0;collapsible=0;dropTarget=0;fillColor=none;points=[[0,0.5],[1,0.5]];portConstraint=eastwest;" parent="y7wRmsII9Z6MHcfROsYH-127" vertex="1">
                    <mxGeometry width="150" height="21" as="geometry"/>
                </mxCell>
                <mxCell id="y7wRmsII9Z6MHcfROsYH-129" value="&lt;div style=&quot;text-align: start;&quot;&gt;&lt;span style=&quot;color: rgb(0, 0, 0); font-family: &amp;quot;Nunito Sans&amp;quot;, sans-serif; font-size: 14px; background-color: rgb(255, 255, 255);&quot;&gt;billets&lt;/span&gt;&lt;br&gt;&lt;/div&gt;" style="shape=partialRectangle;html=1;whiteSpace=wrap;connectable=0;overflow=hidden;fillColor=none;top=0;left=0;bottom=0;right=0;pointerEvents=1;" parent="y7wRmsII9Z6MHcfROsYH-128" vertex="1">
                    <mxGeometry width="150" height="21" as="geometry">
                        <mxRectangle width="150" height="21" as="alternateBounds"/>
                    </mxGeometry>
                </mxCell>
                <mxCell id="y7wRmsII9Z6MHcfROsYH-130" value="" style="shape=tableRow;horizontal=0;startSize=0;swimlaneHead=0;swimlaneBody=0;top=0;left=0;bottom=0;right=0;collapsible=0;dropTarget=0;fillColor=none;points=[[0,0.5],[1,0.5]];portConstraint=eastwest;" parent="y7wRmsII9Z6MHcfROsYH-127" vertex="1">
                    <mxGeometry y="21" width="150" height="79" as="geometry"/>
                </mxCell>
                <mxCell id="y7wRmsII9Z6MHcfROsYH-131" value="id&lt;br&gt;num&lt;br&gt;prix&lt;br&gt;id_eve&lt;br&gt;id_retour" style="shape=partialRectangle;html=1;whiteSpace=wrap;connectable=0;overflow=hidden;fillColor=none;top=0;left=0;bottom=0;right=0;pointerEvents=1;align=left;" parent="y7wRmsII9Z6MHcfROsYH-130" vertex="1">
                    <mxGeometry width="150" height="79" as="geometry">
                        <mxRectangle width="150" height="79" as="alternateBounds"/>
                    </mxGeometry>
                </mxCell>
                <mxCell id="y7wRmsII9Z6MHcfROsYH-132" value="" style="shape=table;startSize=0;container=1;collapsible=0;childLayout=tableLayout;" parent="1" vertex="1">
                    <mxGeometry x="40" y="1176" width="150" height="110" as="geometry"/>
                </mxCell>
                <mxCell id="y7wRmsII9Z6MHcfROsYH-133" value="" style="shape=tableRow;horizontal=0;startSize=0;swimlaneHead=0;swimlaneBody=0;top=0;left=0;bottom=0;right=0;collapsible=0;dropTarget=0;fillColor=none;points=[[0,0.5],[1,0.5]];portConstraint=eastwest;" parent="y7wRmsII9Z6MHcfROsYH-132" vertex="1">
                    <mxGeometry width="150" height="28" as="geometry"/>
                </mxCell>
                <mxCell id="y7wRmsII9Z6MHcfROsYH-134" value="&lt;div style=&quot;text-align: start;&quot;&gt;&lt;span style=&quot;color: rgb(0, 0, 0); font-family: &amp;quot;Nunito Sans&amp;quot;, sans-serif; font-size: 14px; background-color: rgb(255, 255, 255);&quot;&gt;lieux&lt;/span&gt;&lt;br&gt;&lt;/div&gt;" style="shape=partialRectangle;html=1;whiteSpace=wrap;connectable=0;overflow=hidden;fillColor=none;top=0;left=0;bottom=0;right=0;pointerEvents=1;" parent="y7wRmsII9Z6MHcfROsYH-133" vertex="1">
                    <mxGeometry width="150" height="28" as="geometry">
                        <mxRectangle width="150" height="28" as="alternateBounds"/>
                    </mxGeometry>
                </mxCell>
                <mxCell id="y7wRmsII9Z6MHcfROsYH-135" value="" style="shape=tableRow;horizontal=0;startSize=0;swimlaneHead=0;swimlaneBody=0;top=0;left=0;bottom=0;right=0;collapsible=0;dropTarget=0;fillColor=none;points=[[0,0.5],[1,0.5]];portConstraint=eastwest;" parent="y7wRmsII9Z6MHcfROsYH-132" vertex="1">
                    <mxGeometry y="28" width="150" height="82" as="geometry"/>
                </mxCell>
                <mxCell id="y7wRmsII9Z6MHcfROsYH-136" value="id&lt;br&gt;pays&lt;br&gt;ville&lt;br&gt;adresse&lt;br&gt;id_eve" style="shape=partialRectangle;html=1;whiteSpace=wrap;connectable=0;overflow=hidden;fillColor=none;top=0;left=0;bottom=0;right=0;pointerEvents=1;align=left;" parent="y7wRmsII9Z6MHcfROsYH-135" vertex="1">
                    <mxGeometry width="150" height="82" as="geometry">
                        <mxRectangle width="150" height="82" as="alternateBounds"/>
                    </mxGeometry>
                </mxCell>
                <mxCell id="y7wRmsII9Z6MHcfROsYH-137" value="" style="shape=table;startSize=0;container=1;collapsible=0;childLayout=tableLayout;" parent="1" vertex="1">
                    <mxGeometry x="372" y="751" width="108" height="115" as="geometry"/>
                </mxCell>
                <mxCell id="y7wRmsII9Z6MHcfROsYH-138" value="" style="shape=tableRow;horizontal=0;startSize=0;swimlaneHead=0;swimlaneBody=0;top=0;left=0;bottom=0;right=0;collapsible=0;dropTarget=0;fillColor=none;points=[[0,0.5],[1,0.5]];portConstraint=eastwest;" parent="y7wRmsII9Z6MHcfROsYH-137" vertex="1">
                    <mxGeometry width="108" height="30" as="geometry"/>
                </mxCell>
                <mxCell id="y7wRmsII9Z6MHcfROsYH-139" value="&lt;div style=&quot;text-align: start;&quot;&gt;&lt;span style=&quot;color: rgb(0, 0, 0); font-family: &amp;quot;Nunito Sans&amp;quot;, sans-serif; font-size: 14px; background-color: rgb(255, 255, 255);&quot;&gt;sponsors&lt;/span&gt;&lt;br&gt;&lt;/div&gt;" style="shape=partialRectangle;html=1;whiteSpace=wrap;connectable=0;overflow=hidden;fillColor=none;top=0;left=0;bottom=0;right=0;pointerEvents=1;" parent="y7wRmsII9Z6MHcfROsYH-138" vertex="1">
                    <mxGeometry width="108" height="30" as="geometry">
                        <mxRectangle width="108" height="30" as="alternateBounds"/>
                    </mxGeometry>
                </mxCell>
                <mxCell id="y7wRmsII9Z6MHcfROsYH-140" value="" style="shape=tableRow;horizontal=0;startSize=0;swimlaneHead=0;swimlaneBody=0;top=0;left=0;bottom=0;right=0;collapsible=0;dropTarget=0;fillColor=none;points=[[0,0.5],[1,0.5]];portConstraint=eastwest;" parent="y7wRmsII9Z6MHcfROsYH-137" vertex="1">
                    <mxGeometry y="30" width="108" height="85" as="geometry"/>
                </mxCell>
                <mxCell id="y7wRmsII9Z6MHcfROsYH-141" value="id&lt;br&gt;name&lt;br&gt;siteWeb&lt;br&gt;pays" style="shape=partialRectangle;html=1;whiteSpace=wrap;connectable=0;overflow=hidden;fillColor=none;top=0;left=0;bottom=0;right=0;pointerEvents=1;align=left;" parent="y7wRmsII9Z6MHcfROsYH-140" vertex="1">
                    <mxGeometry width="108" height="85" as="geometry">
                        <mxRectangle width="108" height="85" as="alternateBounds"/>
                    </mxGeometry>
                </mxCell>
                <mxCell id="y7wRmsII9Z6MHcfROsYH-177" value="&lt;div style=&quot;text-align: start;&quot;&gt;&lt;font face=&quot;Nunito Sans, sans-serif&quot; color=&quot;#000000&quot;&gt;&lt;span style=&quot;font-size: 14px; background-color: rgb(255, 255, 255);&quot;&gt;benificie&lt;/span&gt;&lt;/font&gt;&lt;/div&gt;" style="shape=partialRectangle;html=1;whiteSpace=wrap;connectable=0;overflow=hidden;fillColor=#60a917;top=0;left=0;bottom=0;right=0;pointerEvents=1;fontColor=#ffffff;strokeColor=#2D7600;" parent="1" vertex="1">
                    <mxGeometry x="40" y="1020" width="150" height="30" as="geometry">
                        <mxRectangle width="150" height="30" as="alternateBounds"/>
                    </mxGeometry>
                </mxCell>
                <mxCell id="y7wRmsII9Z6MHcfROsYH-178" value="id&lt;br&gt;id_org&lt;br&gt;id_eve" style="shape=partialRectangle;html=1;whiteSpace=wrap;connectable=0;overflow=hidden;fillColor=#6a00ff;top=0;left=0;bottom=0;right=0;pointerEvents=1;align=left;fontColor=#ffffff;strokeColor=#3700CC;" parent="1" vertex="1">
                    <mxGeometry x="40" y="1050" width="150" height="50" as="geometry">
                        <mxRectangle width="150" height="73" as="alternateBounds"/>
                    </mxGeometry>
                </mxCell>
                <mxCell id="y7wRmsII9Z6MHcfROsYH-184" value="&lt;div style=&quot;text-align: start;&quot;&gt;&lt;/div&gt;&lt;span style=&quot;&quot;&gt;&lt;div style=&quot;text-align: left;&quot;&gt;&lt;span style=&quot;background-color: initial;&quot;&gt;organisateur(&lt;/span&gt;&lt;span style=&quot;background-color: initial;&quot;&gt;id,&amp;nbsp;&lt;/span&gt;&lt;span style=&quot;background-color: initial;&quot;&gt;name,&amp;nbsp;&lt;/span&gt;&lt;span style=&quot;background-color: initial;&quot;&gt;adresse,&amp;nbsp;&lt;/span&gt;&lt;span style=&quot;background-color: initial;&quot;&gt;numTel&lt;/span&gt;&lt;span style=&quot;background-color: initial;&quot;&gt;)&lt;/span&gt;&lt;/div&gt;&lt;/span&gt;" style="rounded=1;whiteSpace=wrap;html=1;" parent="1" vertex="1">
                    <mxGeometry x="30" y="1510" width="520" height="60" as="geometry"/>
                </mxCell>
                <mxCell id="y7wRmsII9Z6MHcfROsYH-185" value="sponsors(&lt;span style=&quot;text-align: left;&quot;&gt;&amp;nbsp;id,&lt;/span&gt;&lt;span style=&quot;text-align: left;&quot;&gt;&amp;nbsp;name,&amp;nbsp;&lt;/span&gt;&lt;span style=&quot;text-align: left;&quot;&gt;siteWeb,&amp;nbsp;&lt;/span&gt;&lt;span style=&quot;text-align: left;&quot;&gt;pays)&lt;/span&gt;" style="rounded=1;whiteSpace=wrap;html=1;" parent="1" vertex="1">
                    <mxGeometry x="30" y="1590" width="520" height="60" as="geometry"/>
                </mxCell>
                <mxCell id="y7wRmsII9Z6MHcfROsYH-186" value="participants(&lt;span style=&quot;text-align: left;&quot;&gt;id,&amp;nbsp;&lt;/span&gt;&lt;span style=&quot;text-align: left;&quot;&gt;name,&amp;nbsp;&lt;/span&gt;&lt;span style=&quot;text-align: left;&quot;&gt;cni, #&lt;/span&gt;&lt;span style=&quot;text-align: left;&quot;&gt;id_billet)&lt;/span&gt;" style="rounded=1;whiteSpace=wrap;html=1;" parent="1" vertex="1">
                    <mxGeometry x="30" y="1680" width="520" height="60" as="geometry"/>
                </mxCell>
                <mxCell id="y7wRmsII9Z6MHcfROsYH-187" value="pillets( id&lt;span style=&quot;text-align: left;&quot;&gt;,&amp;nbsp;&lt;/span&gt;&lt;span style=&quot;text-align: left;&quot;&gt;num,&amp;nbsp;&lt;/span&gt;&lt;span style=&quot;text-align: left;&quot;&gt;prix,&amp;nbsp;&lt;/span&gt;&lt;span style=&quot;text-align: left;&quot;&gt;#id_eve,&amp;nbsp;&lt;/span&gt;&lt;span style=&quot;text-align: left;&quot;&gt;#id_retour)&lt;/span&gt;" style="rounded=1;whiteSpace=wrap;html=1;" parent="1" vertex="1">
                    <mxGeometry x="30" y="1770" width="520" height="60" as="geometry"/>
                </mxCell>
                <mxCell id="y7wRmsII9Z6MHcfROsYH-188" value="benificie( id, #id_org&lt;span style=&quot;color: rgb(255, 255, 255); text-align: left;&quot;&gt;, #id_eve )&lt;/span&gt;" style="rounded=1;whiteSpace=wrap;html=1;" parent="1" vertex="1">
                    <mxGeometry x="30" y="1860" width="520" height="60" as="geometry"/>
                </mxCell>
                <mxCell id="y7wRmsII9Z6MHcfROsYH-189" value="evenement(&amp;nbsp;&lt;span style=&quot;text-align: left;&quot;&gt;id,&amp;nbsp;&lt;/span&gt;&lt;span style=&quot;text-align: left;&quot;&gt;name,&amp;nbsp;&lt;/span&gt;&lt;span style=&quot;text-align: left;&quot;&gt;dateDebut,&amp;nbsp;&lt;/span&gt;&lt;span style=&quot;text-align: left;&quot;&gt;dateFin,&amp;nbsp;&lt;/span&gt;&lt;span style=&quot;text-align: left;&quot;&gt;#id_spons )&lt;/span&gt;" style="rounded=1;whiteSpace=wrap;html=1;" parent="1" vertex="1">
                    <mxGeometry x="30" y="1940" width="520" height="60" as="geometry"/>
                </mxCell>
                <mxCell id="y7wRmsII9Z6MHcfROsYH-190" value="lieux(&amp;nbsp;&lt;span style=&quot;text-align: left;&quot;&gt;id,&lt;/span&gt;&lt;span style=&quot;text-align: left;&quot;&gt;&amp;nbsp;pays,&amp;nbsp;&lt;/span&gt;&lt;span style=&quot;text-align: left;&quot;&gt;ville,&amp;nbsp;&lt;/span&gt;&lt;span style=&quot;text-align: left;&quot;&gt;adresse, #&lt;/span&gt;&lt;span style=&quot;text-align: left;&quot;&gt;id_eve&lt;/span&gt;&lt;span style=&quot;text-align: left;&quot;&gt;&amp;nbsp;)&lt;/span&gt;" style="rounded=1;whiteSpace=wrap;html=1;" parent="1" vertex="1">
                    <mxGeometry x="30" y="2020" width="520" height="60" as="geometry"/>
                </mxCell>
                <mxCell id="y7wRmsII9Z6MHcfROsYH-191" value="retours(&lt;span style=&quot;text-align: left;&quot;&gt;id_retour,&amp;nbsp;&lt;/span&gt;&lt;span style=&quot;text-align: left;&quot;&gt;sum-prix_retour, #&lt;/span&gt;&lt;span style=&quot;text-align: left;&quot;&gt;id_eve&lt;font color=&quot;#ffffff&quot;&gt;&amp;nbsp;)&lt;/font&gt;&lt;/span&gt;&lt;span style=&quot;text-align: left;&quot;&gt;&lt;br&gt;&lt;/span&gt;" style="rounded=1;whiteSpace=wrap;html=1;" parent="1" vertex="1">
                    <mxGeometry x="30" y="2100" width="520" height="60" as="geometry"/>
                </mxCell>
                <mxCell id="y7wRmsII9Z6MHcfROsYH-192" value="&lt;h1&gt;CMD&lt;/h1&gt;&lt;h2&gt;Modèle Conceptuel des Données&lt;/h2&gt;" style="rounded=1;whiteSpace=wrap;html=1;spacing=20;" parent="1" vertex="1">
                    <mxGeometry x="-260" y="211.5" width="180" height="217" as="geometry"/>
                </mxCell>
                <mxCell id="y7wRmsII9Z6MHcfROsYH-193" value="" style="shape=curlyBracket;whiteSpace=wrap;html=1;rounded=1;labelPosition=left;verticalLabelPosition=middle;align=right;verticalAlign=middle;fontSize=1;size=0;" parent="1" vertex="1">
                    <mxGeometry x="-70" y="260" height="120" as="geometry"/>
                </mxCell>
                <mxCell id="y7wRmsII9Z6MHcfROsYH-194" value="" style="shape=curlyBracket;whiteSpace=wrap;html=1;rounded=1;labelPosition=left;verticalLabelPosition=middle;align=right;verticalAlign=middle;fontSize=1;size=0.5;" parent="1" vertex="1">
                    <mxGeometry x="-80" y="30" width="20" height="580" as="geometry"/>
                </mxCell>
                <mxCell id="y7wRmsII9Z6MHcfROsYH-196" value="" style="shape=curlyBracket;whiteSpace=wrap;html=1;rounded=1;labelPosition=left;verticalLabelPosition=middle;align=right;verticalAlign=middle;fontSize=1;size=0.5;" parent="1" vertex="1">
                    <mxGeometry x="-67" y="796" width="20" height="580" as="geometry"/>
                </mxCell>
                <mxCell id="y7wRmsII9Z6MHcfROsYH-198" value="&lt;h1 style=&quot;font-size: 23px;&quot;&gt;MLD&lt;/h1&gt;&lt;div&gt;&lt;br&gt;&lt;/div&gt;&lt;h3 style=&quot;font-size: 15px;&quot;&gt;etablir&amp;nbsp;&lt;/h3&gt;&lt;h3 style=&quot;font-size: 15px;&quot;&gt;&lt;span lang=&quot;fr&quot; class=&quot;ILfuVd&quot;&gt;Modèle Logique des Données&lt;/span&gt;&lt;br&gt;&lt;/h3&gt;" style="shape=ext;double=1;rounded=1;whiteSpace=wrap;html=1;fontSize=1;" parent="1" vertex="1">
                    <mxGeometry x="-248" y="963" width="180" height="250" as="geometry"/>
                </mxCell>
                <mxCell id="y7wRmsII9Z6MHcfROsYH-200" value="&lt;h1 style=&quot;font-size: 23px;&quot;&gt;MLD&lt;/h1&gt;&lt;div&gt;&lt;br&gt;&lt;/div&gt;&lt;h3 style=&quot;font-size: 15px;&quot;&gt;etablir&amp;nbsp;&lt;/h3&gt;&lt;h3 style=&quot;font-size: 15px;&quot;&gt;&lt;span lang=&quot;fr&quot; class=&quot;ILfuVd&quot;&gt;Schema relationnel&lt;/span&gt;&lt;br&gt;&lt;/h3&gt;" style="shape=ext;double=1;rounded=1;whiteSpace=wrap;html=1;fontSize=1;" parent="1" vertex="1">
                    <mxGeometry x="-240" y="1700" width="180" height="250" as="geometry"/>
                </mxCell>
                <mxCell id="y7wRmsII9Z6MHcfROsYH-201" value="" style="shape=curlyBracket;whiteSpace=wrap;html=1;rounded=1;labelPosition=left;verticalLabelPosition=middle;align=right;verticalAlign=middle;fontSize=1;size=0.5;" parent="1" vertex="1">
                    <mxGeometry x="-60" y="1510" width="20" height="640" as="geometry"/>
                </mxCell>
                <mxCell id="y7wRmsII9Z6MHcfROsYH-208" style="edgeStyle=none;html=1;entryX=1;entryY=0.5;entryDx=0;entryDy=0;fontFamily=Helvetica;fontSize=15;" parent="1" source="y7wRmsII9Z6MHcfROsYH-130" target="y7wRmsII9Z6MHcfROsYH-115" edge="1">
                    <mxGeometry relative="1" as="geometry"/>
                </mxCell>
            </root>
        </mxGraphModel>
    </diagram>
    <diagram id="wiUiCK7a1ziL48S3W87C" name="Page-2">
        <mxGraphModel dx="320" dy="419" grid="1" gridSize="10" guides="1" tooltips="1" connect="1" arrows="1" fold="1" page="1" pageScale="1" pageWidth="850" pageHeight="1100" math="0" shadow="0">
            <root>
                <mxCell id="0"/>
                <mxCell id="1" parent="0"/>
            </root>
        </mxGraphModel>
    </diagram>
</mxfile>